<?xml version="1.0" encoding="utf-8"?>
		 <!DOCTYPE svg PUBLIC "-//W3C//DTD SVG 1.1//EN" "http://www.w3.org/Graphics/SVG/1.1/DTD/svg11.dtd">
		 <svg version="1.1" id="Ebene_1" xmlns="http://www.w3.org/2000/svg" xmlns:xlink="http://www.w3.org/1999/xlink" x="0px" y="0px"
		 width="320px" height="320px" viewBox="0 0 320 320" enable-background="new 0 0 320 320"
					  xml:space="preserve">
		 <path d="M113.184891,10.000000L206.815109,10.000000C236.526733,10.000000,251.382538,10.000000,267.374176,15.056519C284.834381,21.411518,298.588470,35.165600,304.943481,52.625816C310.000000,68.617462,310.000000,83.473274,310.000000,113.184891L310.000000,206.815109C310.000000,236.526733,310.000000,251.382538,304.943481,267.374176C298.588470,284.834412,284.834412,298.588470,267.374176,304.943481C251.382538,310.000000,236.526733,310.000000,206.815109,310.000000L113.184891,310.000000C83.473274,310.000000,68.617462,310.000000,52.625832,304.943481C35.165611,298.588470,21.411524,284.834412,15.056521,267.374176C10.000000,251.382538,10.000000,236.526733,10.000000,206.815109L10.000000,113.184891C10.000000,83.473274,10.000000,68.617462,15.056520,52.625832C21.411522,35.165607,35.165611,21.411518,52.625835,15.056519C68.617462,10.000000,83.473274,10.000000,113.184891,10.000000L113.184891,10.000000"/>
		 </svg>
