<?xml version="1.0" encoding="UTF-8" standalone="no"?>
<svg width="567px" height="1188px" viewBox="0 0 567 1188" version="1.1" xmlns="http://www.w3.org/2000/svg" xmlns:xlink="http://www.w3.org/1999/xlink" xmlns:sketch="http://www.bohemiancoding.com/sketch/ns">
    <g id="Page-1" stroke="none" stroke-width="1" fill="none" fill-rule="evenodd" sketch:type="MSPage">
        <rect id="Rectangle-3" fill="#D4D4D4" sketch:type="MSShapeGroup" x="0" y="311" width="2" height="74"></rect>
        <path d="M60.8855925,0.422093065 C61.6049699,0.207838099 508.244692,0 508.244692,0 C522.218201,2.56865501 556.445007,15.3542395 566.751587,56.8983688 L566,1133.85267 C558.651123,1174.40613 518.371582,1186.7207 508.244692,1187.5875 C508.244692,1187.5875 83.5110375,1188.51563 61.996262,1187.5875 C43.9964074,1185.25206 12.1662773,1177.9719 2.583663,1133.85267 L2,385.478849 L2.583663,57.4804109 C9.76389408,20.5548363 42.181366,3.8285501 60.8855925,0.422093065 Z" id="Path-1" fill="#D4D4D4" sketch:type="MSShapeGroup"></path>
        <circle id="Oval-1" fill="#C6C6C6" sketch:type="MSShapeGroup" cx="284" cy="42" r="10"></circle>
        <rect id="Rectangle-4" fill="#C6C6C6" sketch:type="MSShapeGroup" x="242" y="78" width="87" height="17" rx="8"></rect>
        <circle id="Oval-2" stroke="#C6C6C6" stroke-width="5" fill="#D4D4D4" sketch:type="MSShapeGroup" cx="285" cy="1111" r="43"></circle>
        <rect id="Path" fill="#D4D4D4" sketch:type="MSShapeGroup" x="0" y="201" width="2" height="73"></rect>
        <rect id="Rectangle-2" fill="#FFFFFF" sketch:type="MSShapeGroup" x="27" y="145" width="516" height="897"></rect>
    </g>
</svg>