<svg version="1.0" xmlns="http://www.w3.org/2000/svg"
 width="396.000000pt" height="533.000000pt" viewBox="0 0 396.000000 533.000000"
 preserveAspectRatio="xMidYMid meet">
  <g transform="translate(0.000000,533.000000) scale(0.100000,-0.100000)"
  fill="#ffffff" stroke="none">
    <path d="M2069 4973 c-113 -109 -217 -209 -232 -222 l-26 -24 -148 95 c-81 53
    -205 132 -275 176 l-127 81 -458 -525 c-252 -289 -459 -531 -461 -537 -2 -7
    194 188 436 432 l438 444 268 -179 268 -179 192 199 191 198 255 -102 c140
    -56 259 -104 264 -107 4 -3 -74 -89 -175 -191 -101 -101 -177 -182 -169 -180
    8 3 165 51 349 108 l333 102 298 -297 c164 -163 300 -293 304 -287 3 5 -162
    220 -367 476 l-372 467 -83 -88 -83 -88 -207 213 -207 213 -206 -198z"/>
    <path d="M234 3873 c6 -28 241 -1679 416 -2918 49 -346 92 -645 95 -663 l6
    -32 1207 0 1207 0 33 227 c117 815 464 3230 472 3288 6 39 13 82 16 98 l6 27
    -1732 0 -1732 0 6 -27z"/>
  </g>
</svg>
