<?xml version="1.0" encoding="utf-8"?>
<!-- Generator: Adobe Illustrator 16.0.0, SVG Export Plug-In . SVG Version: 6.00 Build 0)  -->
<!DOCTYPE svg PUBLIC "-//W3C//DTD SVG 1.1//EN" "http://www.w3.org/Graphics/SVG/1.1/DTD/svg11.dtd">
<svg version="1.1" id="Layer_1" xmlns="http://www.w3.org/2000/svg" xmlns:xlink="http://www.w3.org/1999/xlink" x="0px" y="0px"
	 width="512px" height="512px" viewBox="0 0 512 512" enable-background="new 0 0 512 512" xml:space="preserve">
<path fill="#020202" d="M256,31C131.737,31,31,131.736,31,256c0,124.265,100.736,225,225,225c124.265,0,225-100.735,225-225
	C481,131.736,380.265,31,256,31z M256,368c-61.856,0-112-50.144-112-112c0-61.856,50.144-112,112-112c61.856,0,112,50.144,112,112
	C368,317.856,317.857,368,256,368z"/>
<g>
	<path d="M223.143,255.387c-5.94-3.156-10.272-6.684-12.995-10.581c-3.712-5.321-5.569-11.447-5.569-18.378
		c0-11.385,5.352-20.698,16.058-27.938c8.354-5.569,19.398-8.354,33.136-8.354c18.192,0,31.635,3.466,40.329,10.396
		c8.692,6.931,13.041,15.656,13.041,26.175c0,6.126-1.732,11.85-5.198,17.171c-2.599,3.961-6.683,7.797-12.252,11.51
		c7.364,3.526,12.855,8.199,16.476,14.015c3.62,5.817,5.43,12.252,5.43,19.307c0,6.807-1.564,13.164-4.688,19.074
		c-3.125,5.909-6.961,10.473-11.509,13.69c-4.549,3.218-10.21,5.584-16.986,7.101c-6.775,1.516-14.001,2.273-21.673,2.273
		c-14.419,0-25.432-1.701-33.042-5.104c-7.611-3.403-13.397-8.416-17.357-15.036c-3.961-6.621-5.94-14.016-5.94-22.184
		c0-7.982,1.856-14.743,5.569-20.281C209.684,262.705,215.407,258.42,223.143,255.387z M238.086,287.223
		c0,6.002,1.824,10.906,5.477,14.712c3.65,3.806,7.827,5.708,12.53,5.708c4.516,0,8.57-1.934,12.159-5.801
		c3.587-3.867,5.384-8.771,5.384-14.712c0-6.002-1.811-10.922-5.431-14.758c-3.619-3.836-7.812-5.755-12.576-5.755
		c-4.703,0-8.804,1.856-12.299,5.569C239.834,275.9,238.086,280.912,238.086,287.223z M240.128,228.656
		c0,4.704,1.47,8.493,4.409,11.371c2.938,2.877,6.853,4.315,11.741,4.315c4.33,0,7.89-1.422,10.674-4.27
		c2.785-2.845,4.177-6.527,4.177-11.045c0-4.702-1.454-8.523-4.362-11.463c-2.909-2.938-6.622-4.409-11.138-4.409
		c-4.581,0-8.308,1.439-11.185,4.316C241.567,220.348,240.128,224.077,240.128,228.656z"/>
</g>
</svg>
